<svg xmlns="http://www.w3.org/2000/svg" xmlns:xlink="http://www.w3.org/1999/xlink" id="Capa_1" width="799.143" height="799.143" x="0" style="enable-background:new 0 0 799.143 799.143" y="0" version="1.1" viewBox="0 0 799.143 799.143" xml:space="preserve"><g><g><g><rect width="49.81" height="40.25" x="205.813" y="428.549"/><polygon points="593.33 289.684 593.33 224.276 593.319 224.276 530.001 160.881 542.465 146.794 542.465 130.693 474.039 130.693 399.571 164.907 325.109 130.693 256.68 130.693 256.68 146.794 269.144 160.881 205.832 224.276 205.813 224.276 205.813 289.684 188.208 289.684 188.208 420.5 271.727 420.5 271.727 289.684 255.624 289.684 255.624 244.904 302.208 198.259 302.97 199.121 302.97 309.811 339.195 366.161 399.571 366.161 459.948 366.161 496.173 309.811 496.173 199.121 496.933 198.259 543.52 244.904 543.52 289.684 527.417 289.684 527.417 420.5 610.935 420.5 610.935 289.684"/><rect width="49.81" height="40.25" x="543.52" y="428.549"/></g><path d="M453.305,0v15.563H346.628V0h-11.51v128.905l64.453,29.505l64.456-29.505V0H453.305z M450.934,68.867l-51.362,17.521 l-51.359-17.521V44.304h102.722V68.867z"/><g><rect width="85.651" height="35.975" x="292.222" y="763.168"/><polygon points="491.503 567.885 491.503 447.119 467.807 447.119 467.807 427.42 467.807 394.872 492.643 394.872 492.643 376.884 400.142 376.884 307.639 376.884 307.639 394.872 328.194 394.872 328.194 447.119 307.639 447.119 307.639 567.885 292.222 567.885 292.222 744.326 377.873 744.326 377.873 567.885 362.456 567.885 362.456 462.535 364.024 462.535 377.873 477.955 400.142 477.955 422.41 477.955 436.26 462.535 436.686 462.535 436.686 567.885 421.27 567.885 421.27 744.326 506.921 744.326 506.921 567.885"/><rect width="85.65" height="35.975" x="421.27" y="763.168"/></g></g></g></svg>